<svg xmlns="http://www.w3.org/2000/svg" xmlns:svg="http://www.w3.org/2000/svg" xmlns:xlink="http://www.w3.org/1999/xlink" version="1.0" height="1280.0000000000002pt" width="1145.999999999999pt" viewBox="279.0000000000001 -392.99999999999994 1153.999999999999 1286.0000000000002" ><defs><style type="text/css">
            @font-face {
                font-family: 'lt_regular';
                src: url('https://app.creately.com/diagram/assets/fonts/lato/lt-regular-webfont.woff2') format('woff2'),
                    url('https://app.creately.com/diagram/assets/fonts/lato/lt-regular-webfont.woff') format('woff');
                font-weight: normal;
                font-style: normal;
            }
            @font-face {
                font-family: 'noto_regular';
                src: url('https://app.creately.com/diagram/assets/fonts/noto/noto-regular.woff') format('woff'),
                     url('https://app.creately.com/diagram/assets/fonts/noto/noto-regular.woff2') format('woff2');
                font-weight: normal;
                font-style: normal;
            }
        p {
            margin: 0;
        }
        </style></defs><defs><style>
            span{ display: inline-block; }
        </style></defs><g id="Wz7Z3DsdKhf"><g transform="translate(420 -389.99999999999994)"><rect x="0" y="0" width="780.0000000000002" height="1280.0000000000002" fill="rgb(253,252,250)" stroke="#D8D8D8" stroke-width="2" stroke-linecap="round" stroke-linejoin="round"/></g><g transform="translate(780.5000000000001, -379.99999999999994) rotate(0, 29.5, 0)" width="59" height="26"><text text-decoration="none" x="0" fill="rgb(84, 84, 84)" font-size="14pt" font-family="lt_regular"  y="20">System</text><text text-decoration="none" x="61" fill="#4b4b4b" font-size="10pt" font-family="noto_regular"  y="20"></text></g></g><g id="qlPGUbyIGuk"><g transform="translate(1269.999999999999 200)"><rect x="0" y="0" width="160.00000000000014" height="130.00000000000153" fill="rgb(253,252,250)" stroke="#D8D8D8" stroke-width="2" stroke-linecap="round" stroke-linejoin="round"/></g><g transform="translate(1320.499999999999, 210) rotate(0, 29.5, 0)" width="59" height="26"><text text-decoration="none" x="0" fill="rgb(84, 84, 84)" font-size="14pt" font-family="lt_regular"  y="20">System</text><text text-decoration="none" x="61" fill="#4b4b4b" font-size="10pt" font-family="noto_regular"  y="20"></text></g></g><g id="VrKHOd6meF4"><g transform="translate(330 -139.99999999999994)"><ellipse cx="20" cy="10" rx="10" ry="10" fill="rgb(255,255,255)" stroke="#FF3D3D" stroke-width="2" stroke-linecap="round" stroke-linejoin="round"/><path d="M 20,20 L 20,48 L 40,80 M 20,48 L 0,80 M 2,30 L 38,30" fill="none" stroke="#FF3D3D" stroke-width="2" stroke-linecap="round" stroke-linejoin="round"/><rect x="0" y="0" width="40" height="80" fill="rgba(255,255,255,0.01)" stroke="rgba(255,255,255,0.01)" stroke-width="2" stroke-linecap="round" stroke-linejoin="round"/></g><g transform="translate(331, -49.99999999999994) rotate(0, 19, 0)" width="38" height="26"><text text-decoration="none" x="0" fill="rgb(84, 84, 84)" font-size="14pt" font-family="lt_regular"  y="20">User</text><text text-decoration="none" x="39" fill="#4b4b4b" font-size="10pt" font-family="noto_regular"  y="20"></text></g></g><g id="orSRD2x7bMW"><g transform="translate(320.00000000000017 640)"><ellipse cx="19.999999999999947" cy="10.000000000000002" rx="9.999999999999973" ry="10.000000000000002" fill="rgb(255,255,255)" stroke="#FF3D3D" stroke-width="2" stroke-linecap="round" stroke-linejoin="round"/><path d="M 19.999999999999947,20.000000000000004 L 19.999999999999947,48.00000000000001 L 39.99999999999989,80.00000000000001 M 19.999999999999947,48.00000000000001 L 0,80.00000000000001 M 1.9999999999999947,30.000000000000007 L 37.9999999999999,30.000000000000007" fill="none" stroke="#FF3D3D" stroke-width="2" stroke-linecap="round" stroke-linejoin="round"/><rect x="0" y="0" width="39.99999999999989" height="80.00000000000001" fill="rgba(255,255,255,0.01)" stroke="rgba(255,255,255,0.01)" stroke-width="2" stroke-linecap="round" stroke-linejoin="round"/></g><g transform="translate(284.0000000000001, 730) rotate(0, 56, 0)" width="112" height="26"><text text-decoration="none" x="0" fill="rgb(84, 84, 84)" font-size="14pt" font-family="lt_regular"  y="20">Administrator</text><text text-decoration="none" x="117" fill="#4b4b4b" font-size="10pt" font-family="noto_regular"  y="20"></text></g></g><g id="nau20xLaEZb"><g transform="translate(530 -370.00000000000006)"><ellipse cx="60" cy="30" rx="60" ry="30" fill="rgb(146,183,62)" stroke="#b74e3e" stroke-width="2" stroke-linecap="round" stroke-linejoin="round" stroke-dasharray="0 0"/></g><g transform="translate(548.5, -366.00000000000006) rotate(0, 41.5, 26)" width="83" height="52"><text text-decoration="none" x="20" fill="#ffffff" font-size="14pt" font-family="lt_regular"  y="20">View&#160;</text><text text-decoration="none" x="22.5" fill="#ffffff" font-size="14pt" font-family="lt_regular"  y="46">item&#160;</text><text text-decoration="none" x="14.5" fill="#ffffff" font-size="14pt" font-family="lt_regular"  y="72">details</text><text text-decoration="none" x="68.5" fill="#4b4b4b" font-size="10pt" font-family="noto_regular"  y="72"></text></g></g><g id="Yo4UgOF8bFH"><g transform="translate(530 -280)"><ellipse cx="60" cy="30" rx="60" ry="30" fill="rgb(146,183,62)" stroke="#b74e3e" stroke-width="2" stroke-linecap="round" stroke-linejoin="round" stroke-dasharray="0 0"/></g><g transform="translate(550, -276) rotate(0, 40, 26)" width="80" height="52"><text text-decoration="none" x="12" fill="#ffffff" font-size="14pt" font-family="lt_regular"  y="20">Search&#160;</text><text text-decoration="none" x="8.5" fill="#ffffff" font-size="14pt" font-family="lt_regular"  y="46">an&#160;</text><text text-decoration="none" x="33.5" fill="#ffffff" font-size="14pt" font-family="lt_regular"  y="46">item</text><text text-decoration="none" x="71.5" fill="#4b4b4b" font-size="10pt" font-family="noto_regular"  y="46"></text></g></g><g id="ypw6hdliolM"><g transform="translate(530 -210)"><ellipse cx="60" cy="30" rx="60" ry="30" fill="rgb(146,183,62)" stroke="#b74e3e" stroke-width="2" stroke-linecap="round" stroke-linejoin="round" stroke-dasharray="0 0"/></g><g transform="translate(557, -193) rotate(0, 33, 13)" width="66" height="26"><text text-decoration="none" x="0" fill="#ffffff" font-size="14pt" font-family="lt_regular"  y="20">Register</text><text text-decoration="none" x="69" fill="#4b4b4b" font-size="10pt" font-family="noto_regular"  y="20"></text></g></g><g id="bKr2ZEB5ZwB"><g transform="translate(540 -100)"><ellipse cx="60" cy="30" rx="60" ry="30" fill="rgb(146,183,62)" stroke="#b74e3e" stroke-width="2" stroke-linecap="round" stroke-linejoin="round" stroke-dasharray="0 0"/></g><g transform="translate(578, -83) rotate(0, 22, 13)" width="44" height="26"><text text-decoration="none" x="0" fill="#ffffff" font-size="14pt" font-family="lt_regular"  y="20">Login</text><text text-decoration="none" x="47" fill="#4b4b4b" font-size="10pt" font-family="noto_regular"  y="20"></text></g></g><g id="mdeqT1ITdKs"><g transform="translate(640.0000000000002 -10.000000000000057)"><ellipse cx="60" cy="30" rx="60" ry="30" fill="rgb(146,183,62)" stroke="#b74e3e" stroke-width="2" stroke-linecap="round" stroke-linejoin="round" stroke-dasharray="0 0"/></g><g transform="translate(667.5000000000002, -6.000000000000057) rotate(0, 32.5, 26)" width="65" height="52"><text text-decoration="none" x="0" fill="#ffffff" font-size="14pt" font-family="lt_regular"  y="20">Reserve&#160;</text><text text-decoration="none" x="8.5" fill="#ffffff" font-size="14pt" font-family="lt_regular"  y="46">ticket</text><text text-decoration="none" x="56.5" fill="#4b4b4b" font-size="10pt" font-family="noto_regular"  y="46"></text></g></g><g id="WIB8ReE1j5u"><g transform="translate(535 80)"><ellipse cx="60" cy="30" rx="60" ry="30" fill="rgb(146,183,62)" stroke="#b74e3e" stroke-width="2" stroke-linecap="round" stroke-linejoin="round" stroke-dasharray="0 0"/></g><g transform="translate(547, 84) rotate(0, 48, 26)" width="96" height="52"><text text-decoration="none" x="20" fill="#ffffff" font-size="14pt" font-family="lt_regular"  y="20">Cancel&#160;</text><text text-decoration="none" x="0" fill="#ffffff" font-size="14pt" font-family="lt_regular"  y="46">Reservation</text><text text-decoration="none" x="100" fill="#4b4b4b" font-size="10pt" font-family="noto_regular"  y="46"></text></g></g><g id="W5cdLTCaG4j"><g transform="translate(850.0000000000001 -120)"><ellipse cx="60" cy="30" rx="60" ry="30" fill="rgb(146,183,62)" stroke="#b74e3e" stroke-width="2" stroke-linecap="round" stroke-linejoin="round" stroke-dasharray="0 0"/></g><g transform="translate(868.0000000000001, -116) rotate(0, 42, 26)" width="84" height="52"><text text-decoration="none" x="21" fill="#ffffff" font-size="14pt" font-family="lt_regular"  y="20">Valid&#160;</text><text text-decoration="none" x="21.5" fill="#ffffff" font-size="14pt" font-family="lt_regular"  y="46">login&#160;</text><text text-decoration="none" x="15" fill="#ffffff" font-size="14pt" font-family="lt_regular"  y="72">details</text><text text-decoration="none" x="69" fill="#4b4b4b" font-size="10pt" font-family="noto_regular"  y="72"></text></g></g><g id="y4JfwcuWGx5"><g transform="translate(850.0000000000002 -229.9999999999999)"><ellipse cx="114.99999999999989" cy="40.00000000000042" rx="114.99999999999989" ry="40.00000000000042" fill="rgb(146,183,62)" stroke="#b74e3e" stroke-width="2" stroke-linecap="round" stroke-linejoin="round" stroke-dasharray="0 0"/></g><g transform="translate(864.5000000000001, -202.99999999999946) rotate(0, 100.5, 13)" width="201" height="26"><text text-decoration="none" x="26" fill="#ffffff" font-size="14pt" font-family="lt_regular"  y="20">Valid&#160;</text><text text-decoration="none" x="73" fill="#ffffff" font-size="14pt" font-family="lt_regular"  y="20">Registration&#160;</text><text text-decoration="none" x="73.5" fill="#ffffff" font-size="14pt" font-family="lt_regular"  y="46">details</text><text text-decoration="none" x="127.5" fill="#4b4b4b" font-size="10pt" font-family="noto_regular"  y="46"></text></g></g><g id="Eqozgb6PoSf"><g transform="translate(880 -20)"><ellipse cx="90" cy="40" rx="90" ry="40" fill="rgb(146,183,62)" stroke="#b74e3e" stroke-width="2" stroke-linecap="round" stroke-linejoin="round" stroke-dasharray="0 0"/><path d="M 0,40 L 180,40 M 0,40 Z" fill="rgb(146,183,62)" stroke="#b74e3e" stroke-width="2" stroke-linecap="round" stroke-linejoin="round" stroke-dasharray="0 0"/></g><g transform="translate(897.5, -13) rotate(0, 72.5, 13)" width="145" height="26"><text text-decoration="none" x="46" fill="#ffffff" font-size="14pt" font-family="lt_regular"  y="20">Check&#160;</text><text text-decoration="none" x="26.5" fill="#ffffff" font-size="14pt" font-family="lt_regular"  y="46">Availability</text><text text-decoration="none" x="118.5" fill="#4b4b4b" font-size="10pt" font-family="noto_regular"  y="46"></text></g><g transform="translate(927, 25) rotate(0, 43, 0)" width="86" height="26"><text text-decoration="none" x="37" fill="#ffffff" font-size="14pt" font-family="lt_regular"  y="20">If&#160;</text><text text-decoration="none" x="7.5" fill="#ffffff" font-size="14pt" font-family="lt_regular"  y="46">available</text><text text-decoration="none" x="78.5" fill="#4b4b4b" font-size="10pt" font-family="noto_regular"  y="46"></text></g></g><g id="bbX0EyGHv8n"><g transform="translate(749.9999999999998 100)"><ellipse cx="60" cy="30" rx="60" ry="30" fill="rgb(146,183,62)" stroke="#b74e3e" stroke-width="2" stroke-linecap="round" stroke-linejoin="round" stroke-dasharray="0 0"/></g><g transform="translate(774.4999999999998, 104) rotate(0, 35.5, 26)" width="71" height="52"><text text-decoration="none" x="12" fill="#ffffff" font-size="14pt" font-family="lt_regular"  y="20">Make&#160;</text><text text-decoration="none" x="0" fill="#ffffff" font-size="14pt" font-family="lt_regular"  y="46">payment</text><text text-decoration="none" x="74" fill="#4b4b4b" font-size="10pt" font-family="noto_regular"  y="46"></text></g></g><g id="ellb2znZE1r"><g transform="translate(990 120)"><ellipse cx="60" cy="30" rx="60" ry="30" fill="rgb(146,183,62)" stroke="#b74e3e" stroke-width="2" stroke-linecap="round" stroke-linejoin="round" stroke-dasharray="0 0"/></g><g transform="translate(1013.5, 115) rotate(0, 36.5, 35)" width="73" height="70"><text text-decoration="none" x="5.5" fill="#ffffff" font-size="14pt" font-family="lt_regular"  y="20">Update&#160;</text><text text-decoration="none" x="0" fill="#ffffff" font-size="14pt" font-family="lt_regular"  y="46">database</text><text text-decoration="none" x="36.5" fill="#ffffff" font-size="14pt" font-family="lt_regular"  y="72"></text><text text-decoration="none" x="36.5" fill="#4b4b4b" font-size="10pt" font-family="noto_regular"  y="93"></text></g></g><g id="Ge68v5lJxX9"><g transform="translate(700 200.00000000000017)"><ellipse cx="130.00000000000003" cy="40.00000000000001" rx="130.00000000000003" ry="40.00000000000001" fill="rgb(146,183,62)" stroke="#b74e3e" stroke-width="2" stroke-linecap="round" stroke-linejoin="round" stroke-dasharray="0 0"/><path d="M 0,40 L 260.00000000000006,40 M 0,40 Z" fill="rgb(146,183,62)" stroke="#b74e3e" stroke-width="2" stroke-linecap="round" stroke-linejoin="round" stroke-dasharray="0 0"/></g><g transform="translate(755, 198.00000000000017) rotate(0, 75, 22)" width="150" height="44"><text text-decoration="none" x="41" fill="#ffffff" font-weight="bold" font-size="14pt" font-family="lt_regular"  y="20">Validate&#160;</text><text text-decoration="none" x="34" fill="#ffffff" font-weight="bold" font-size="14pt" font-family="lt_regular"  y="46">payments</text><text text-decoration="none" x="116" fill="#ffffff" font-weight="bold" font-size="14pt" font-family="lt_regular"  y="46"></text><text text-decoration="none" x="75" fill="#4b4b4b" font-size="10pt" font-family="noto_regular"  y="67"></text></g><g transform="translate(762, 245.00000000000017) rotate(0, 68, 0)" width="136" height="26"><text text-decoration="none" x="45" fill="#ffffff" font-size="14pt" font-family="lt_regular"  y="20">If&#160;</text><text text-decoration="none" x="62" fill="#ffffff" font-size="14pt" font-family="lt_regular"  y="20">not&#160;</text><text text-decoration="none" x="23.5" fill="#ffffff" font-size="14pt" font-family="lt_regular"  y="46">successfull</text><text text-decoration="none" x="112.5" fill="#4b4b4b" font-size="10pt" font-family="noto_regular"  y="46"></text></g></g><g id="belKRA01R31"><g transform="translate(750.0000000000002 320)"><ellipse cx="60" cy="30" rx="60" ry="30" fill="rgb(146,183,62)" stroke="#b74e3e" stroke-width="2" stroke-linecap="round" stroke-linejoin="round" stroke-dasharray="0 0"/></g><g transform="translate(764.0000000000002, 324) rotate(0, 46, 26)" width="92" height="52"><text text-decoration="none" x="22.5" fill="#ffffff" font-size="14pt" font-family="lt_regular"  y="20">Show&#160;</text><text text-decoration="none" x="25" fill="#ffffff" font-size="14pt" font-family="lt_regular"  y="46">error&#160;</text><text text-decoration="none" x="10.5" fill="#ffffff" font-size="14pt" font-family="lt_regular"  y="72">message</text><text text-decoration="none" x="81.5" fill="#4b4b4b" font-size="10pt" font-family="noto_regular"  y="72"></text></g></g><g id="VAtyLr9klih"><g transform="translate(480.00000000000017 410.0000000000003)"><ellipse cx="105.00000000000028" cy="40.00000000000001" rx="105.00000000000028" ry="40.00000000000001" fill="rgb(146,183,62)" stroke="#b74e3e" stroke-width="2" stroke-linecap="round" stroke-linejoin="round" stroke-dasharray="0 0"/><path d="M 0,40 L 210.00000000000057,40 M 0,40 Z" fill="rgb(146,183,62)" stroke="#b74e3e" stroke-width="2" stroke-linecap="round" stroke-linejoin="round" stroke-dasharray="0 0"/></g><g transform="translate(506.00000000000045, 417.0000000000003) rotate(0, 79, 13)" width="158" height="26"><text text-decoration="none" x="18.5" fill="#ffffff" font-weight="bold" font-size="14pt" font-family="lt_regular"  y="20">Check&#160;</text><text text-decoration="none" x="76.5" fill="#ffffff" font-weight="bold" font-size="14pt" font-family="lt_regular"  y="20">expired&#160;</text><text text-decoration="none" x="60.5" fill="#ffffff" font-weight="bold" font-size="14pt" font-family="lt_regular"  y="46">date</text><text text-decoration="none" x="97.5" fill="#4b4b4b" font-size="10pt" font-family="noto_regular"  y="46"></text></g><g transform="translate(530.5000000000005, 455.0000000000003) rotate(0, 54.5, 0)" width="109" height="26"><text text-decoration="none" x="31.5" fill="#ffffff" font-size="14pt" font-family="lt_regular"  y="20">If&#160;</text><text text-decoration="none" x="48.5" fill="#ffffff" font-size="14pt" font-family="lt_regular"  y="20">not&#160;</text><text text-decoration="none" x="23" fill="#ffffff" font-size="14pt" font-family="lt_regular"  y="46">expired</text><text text-decoration="none" x="86" fill="#4b4b4b" font-size="10pt" font-family="noto_regular"  y="46"></text></g></g><g id="xs2Xdnsf9Gb"><g transform="translate(980.0000000000002 420.00000000000017)"><ellipse cx="60" cy="30" rx="60" ry="30" fill="rgb(146,183,62)" stroke="#b74e3e" stroke-width="2" stroke-linecap="round" stroke-linejoin="round" stroke-dasharray="0 0"/></g><g transform="translate(1004.0000000000002, 437.00000000000017) rotate(0, 36, 13)" width="72" height="26"><text text-decoration="none" x="20" fill="#ffffff" font-size="14pt" font-family="lt_regular"  y="20">Use&#160;</text><text text-decoration="none" x="18" fill="#ffffff" font-size="14pt" font-family="lt_regular"  y="46">case</text><text text-decoration="none" x="54" fill="#4b4b4b" font-size="10pt" font-family="noto_regular"  y="46"></text></g></g><g id="d3pBfrOGqvD"><g transform="translate(580 500)"><ellipse cx="60.00000000000008" cy="30.00000000000004" rx="60.00000000000008" ry="30.00000000000004" fill="rgb(146,183,62)" stroke="#b74e3e" stroke-width="2" stroke-linecap="round" stroke-linejoin="round" stroke-dasharray="0 0"/></g><g transform="translate(603, 504) rotate(0, 37, 26)" width="74" height="52"><text text-decoration="none" x="19.5" fill="#ffffff" font-size="14pt" font-family="lt_regular"  y="20">Add&#160;</text><text text-decoration="none" x="19" fill="#ffffff" font-size="14pt" font-family="lt_regular"  y="46">new&#160;</text><text text-decoration="none" x="14" fill="#ffffff" font-size="14pt" font-family="lt_regular"  y="72">items</text><text text-decoration="none" x="60" fill="#4b4b4b" font-size="10pt" font-family="noto_regular"  y="72"></text></g></g><g id="g6FfCqkCeEC"><g transform="translate(570 600)"><ellipse cx="60.00000000000008" cy="30.00000000000004" rx="60.00000000000008" ry="30.00000000000004" fill="rgb(146,183,62)" stroke="#b74e3e" stroke-width="2" stroke-linecap="round" stroke-linejoin="round" stroke-dasharray="0 0"/></g><g transform="translate(608, 617) rotate(0, 22, 13)" width="44" height="26"><text text-decoration="none" x="0" fill="#ffffff" font-size="14pt" font-family="lt_regular"  y="20">Login</text><text text-decoration="none" x="47" fill="#4b4b4b" font-size="10pt" font-family="noto_regular"  y="20"></text></g></g><g id="owSxHmWRmoz"><g transform="translate(670.0000000000002 680)"><ellipse cx="60" cy="25.00000000000001" rx="60" ry="25.00000000000001" fill="rgb(146,183,62)" stroke="#b74e3e" stroke-width="2" stroke-linecap="round" stroke-linejoin="round" stroke-dasharray="0 0"/></g><g transform="translate(703.0000000000002, 679) rotate(0, 27, 26)" width="54" height="52"><text text-decoration="none" x="0" fill="#ffffff" font-size="14pt" font-family="lt_regular"  y="20">Delete&#160;</text><text text-decoration="none" x="4" fill="#ffffff" font-size="14pt" font-family="lt_regular"  y="46">items</text><text text-decoration="none" x="50" fill="#4b4b4b" font-size="10pt" font-family="noto_regular"  y="46"></text></g></g><g id="47e6CedBbNa"><g transform="translate(620 800)"><ellipse cx="60" cy="30" rx="60" ry="30" fill="rgb(146,183,62)" stroke="#b74e3e" stroke-width="2" stroke-linecap="round" stroke-linejoin="round" stroke-dasharray="0 0"/></g><g transform="translate(650, 804) rotate(0, 30, 26)" width="60" height="52"><text text-decoration="none" x="0" fill="#ffffff" font-size="14pt" font-family="lt_regular"  y="20">Update&#160;</text><text text-decoration="none" x="7" fill="#ffffff" font-size="14pt" font-family="lt_regular"  y="46">items</text><text text-decoration="none" x="53" fill="#4b4b4b" font-size="10pt" font-family="noto_regular"  y="46"></text></g></g><g id="igiZf3l7FW8"><g transform="translate(860 630)"><ellipse cx="60" cy="30" rx="60" ry="30" fill="rgb(146,183,62)" stroke="#b74e3e" stroke-width="2" stroke-linecap="round" stroke-linejoin="round" stroke-dasharray="0 0"/></g><g transform="translate(883.5, 634) rotate(0, 36.5, 26)" width="73" height="52"><text text-decoration="none" x="5.5" fill="#ffffff" font-size="14pt" font-family="lt_regular"  y="20">Update&#160;</text><text text-decoration="none" x="0" fill="#ffffff" font-size="14pt" font-family="lt_regular"  y="46">database</text><text text-decoration="none" x="74" fill="#4b4b4b" font-size="10pt" font-family="noto_regular"  y="46"></text></g></g><g id="O89Rif2aNdP"><g><path d="M 384,-132 L 536,-327" fill="none" stroke="#7C7B7A" stroke-width="2" stroke-linecap="round" stroke-linejoin="round"/></g></g><g id="ud1bhuECGkO"><g><path d="M 386,-116 L 530,-250" fill="none" stroke="#7C7B7A" stroke-width="2" stroke-linecap="round" stroke-linejoin="round"/></g></g><g id="4czZE9HjPTg"><g><path d="M 384,-100 L 530,-180" fill="none" stroke="#7C7B7A" stroke-width="2" stroke-linecap="round" stroke-linejoin="round"/></g></g><g id="dQkzqv5uMxu"><g><path d="M 387,-80 L 540,-70" fill="none" stroke="#7E7E7E" stroke-width="2" stroke-linecap="round" stroke-linejoin="round"/></g></g><g id="07F7izSwRBG"><g><path d="M 382,-55 L 535,110" fill="none" stroke="#7E7E7E" stroke-width="2" stroke-linecap="round" stroke-linejoin="round"/></g></g><g id="Y9032BTMqNr"><g><path d="M 369,648 L 599,552" fill="none" stroke="#7C7B7A" stroke-width="2" stroke-linecap="round" stroke-linejoin="round"/></g></g><g id="Oxy3cOaOfbV"><g><path d="M 570,630 L 371,665" fill="none" stroke="#7C7B7A" stroke-width="2" stroke-linecap="round" stroke-linejoin="round"/></g></g><g id="bJI41JqPnmo"><g><path d="M 670,705 L 374,680" fill="none" stroke="#7C7B7A" stroke-width="2" stroke-linecap="round" stroke-linejoin="round"/></g></g><g id="l8GfBZHyRLf"><g><path d="M 626,817 L 373,698" fill="none" stroke="#7E7E7E" stroke-width="2" stroke-linecap="round" stroke-linejoin="round"/></g></g><g id="IxWMSZmQBaf"><mask id="a6f2a" x="636" y="-233" width="265" height="67" maskUnits="userSpaceOnUse"><rect x="636" y="-233" width="265" height="67" fill="white" /><rect x="719.5" y="-215.5" width="98" height="32" fill="black" />undefined</mask><g mask="url(#a6f2a)"><path d="M 650,-180 L 887,-219" fill="none" stroke="#7C7B7A" stroke-width="2" stroke-linecap="round" stroke-linejoin="round" stroke-dasharray="3 3"/><path d="M 887,-219 L 879.0729402158145,-224.2695543171058 M 887,-219 L 881.2020437058767,-211.45081578351576 Z" fill="rgb(255,255,255)" stroke="#7C7B7A" stroke-width="2" stroke-linecap="round" stroke-linejoin="round"/></g><g transform="translate(722.5, -212.5)" width="92" height="26"><text text-decoration="none" x="7.5" fill="rgb(84, 84, 84)" font-size="14pt" font-family="lt_regular"  y="20">&#x226A;include&#x226B;</text><text text-decoration="none" x="84.5" fill="#4b4b4b" font-size="10pt" font-family="noto_regular"  y="20"></text></g>undefined</g><g id="lhyqXWfsRUe"><g><path d="M 640,20 L 384,-68" fill="none" stroke="#7C7B7A" stroke-width="2" stroke-linecap="round" stroke-linejoin="round"/></g></g><g id="YYBfD1yeiSM"><mask id="aa4dd" x="646" y="-104" width="218" height="48" maskUnits="userSpaceOnUse"><rect x="646" y="-104" width="218" height="48" fill="white" /><rect x="706" y="-96" width="98" height="32" fill="black" /></mask><g mask="url(#aa4dd)"><path d="M 660,-70 L 755,-80 L 850,-90" fill="none" stroke="#7C7B7A" stroke-width="2" stroke-linecap="round" stroke-linejoin="round" stroke-dasharray="3 3"/><path d="M 850,-90 L 843.0434782608696,-96.49717514124293 M 850,-90 L 843.0434782608696,-83.50282485875707 Z" fill="rgb(255,255,255)" stroke="#7C7B7A" stroke-width="2" stroke-linecap="round" stroke-linejoin="round"/></g><g transform="translate(709, -93)" width="92" height="26"><text text-decoration="none" x="7.5" fill="rgb(84, 84, 84)" font-size="14pt" font-family="lt_regular"  y="20">&#x226A;include&#x226B;</text><text text-decoration="none" x="84.5" fill="#4b4b4b" font-size="10pt" font-family="noto_regular"  y="20"></text></g></g><g id="tDNs3f1bunz"><mask id="2d8d2" x="581" y="-54" width="33" height="148" maskUnits="userSpaceOnUse"><rect x="581" y="-54" width="33" height="148" fill="white" /><rect x="548.9989605708682" y="4.020788582636428" width="98" height="32" fill="black" /></mask><g mask="url(#2d8d2)"><path d="M 595,80 L 598,20 L 600,-40" fill="none" stroke="#7C7B7A" stroke-width="2" stroke-linecap="round" stroke-linejoin="round" stroke-dasharray="3 3"/><path d="M 600,-40 L 593.5028248587571,-33.04347826086956 M 600,-40 L 606.4971751412429,-33.04347826086956 Z" fill="rgb(255,255,255)" stroke="#7C7B7A" stroke-width="2" stroke-linecap="round" stroke-linejoin="round"/></g><g transform="translate(551.9989605708682, 7.020788582636428)" width="92" height="26"><text text-decoration="none" x="7.5" fill="rgb(84, 84, 84)" font-size="14pt" font-family="lt_regular"  y="20">&#x226A;include&#x226B;</text><text text-decoration="none" x="84.5" fill="#4b4b4b" font-size="10pt" font-family="noto_regular"  y="20"></text></g></g><g id="fb01mzOLsNn"><mask id="a192a" x="576" y="-164" width="38" height="78" maskUnits="userSpaceOnUse"><rect x="576" y="-164" width="38" height="78" fill="white" /><rect x="546" y="-141" width="98" height="32" fill="black" /></mask><g mask="url(#a192a)"><path d="M 600,-100 L 595,-125 L 590,-150" fill="none" stroke="#7C7B7A" stroke-width="2" stroke-linecap="round" stroke-linejoin="round" stroke-dasharray="3 3"/><path d="M 590,-150 L 583.5028248587571,-143.04347826086956 M 590,-150 L 596.4971751412429,-143.04347826086956 Z" fill="rgb(255,255,255)" stroke="#7C7B7A" stroke-width="2" stroke-linecap="round" stroke-linejoin="round"/></g><g transform="translate(549, -138)" width="92" height="26"><text text-decoration="none" x="7.5" fill="rgb(84, 84, 84)" font-size="14pt" font-family="lt_regular"  y="20">&#x226A;include&#x226B;</text><text text-decoration="none" x="84.5" fill="#4b4b4b" font-size="10pt" font-family="noto_regular"  y="20"></text></g></g><g id="gh8CxzuYyQR"><mask id="3a067" x="635" y="34" width="55" height="77" maskUnits="userSpaceOnUse"><rect x="635" y="34" width="55" height="77" fill="white" /><rect x="613.5" y="56.5" width="98" height="32" fill="black" /></mask><g mask="url(#3a067)"><path d="M 649,97 L 676,48" fill="none" stroke="#7C7B7A" stroke-width="2" stroke-linecap="round" stroke-linejoin="round" stroke-dasharray="3 3"/><path d="M 676,48 L 669.5028248587571,54.95652173913044 M 676,48 L 682.4971751412429,54.95652173913044 Z" fill="rgb(255,255,255)" stroke="#7C7B7A" stroke-width="2" stroke-linecap="round" stroke-linejoin="round"/></g><g transform="translate(616.5, 59.5)" width="92" height="26"><text text-decoration="none" x="7.5" fill="rgb(84, 84, 84)" font-size="14pt" font-family="lt_regular"  y="20">&#x226A;include&#x226B;</text><text text-decoration="none" x="84.5" fill="#4b4b4b" font-size="10pt" font-family="noto_regular"  y="20"></text></g></g><g id="db1J3PEtd9a"><mask id="8d337" x="727" y="28" width="56" height="94" maskUnits="userSpaceOnUse"><rect x="727" y="28" width="56" height="94" fill="white" /><rect x="706" y="59" width="98" height="32" fill="black" /></mask><g mask="url(#8d337)"><path d="M 769,108 L 755,75 L 741,42" fill="none" stroke="#7C7B7A" stroke-width="2" stroke-linecap="round" stroke-linejoin="round" stroke-dasharray="3 3"/><path d="M 741,42 L 747.9565217391304,48.497175141242934 M 741,42 L 747.9565217391304,35.50282485875706 Z" fill="rgb(255,255,255)" stroke="#7C7B7A" stroke-width="2" stroke-linecap="round" stroke-linejoin="round"/></g><g transform="translate(709, 62)" width="92" height="26"><text text-decoration="none" x="7.5" fill="rgb(84, 84, 84)" font-size="14pt" font-family="lt_regular"  y="20">&#x226A;include&#x226B;</text><text text-decoration="none" x="84.5" fill="#4b4b4b" font-size="10pt" font-family="noto_regular"  y="20"></text></g></g><g id="ReOzjaKeHvI"><mask id="d1223" x="746" y="6" width="148" height="28" maskUnits="userSpaceOnUse"><rect x="746" y="6" width="148" height="28" fill="white" /><rect x="771" y="4" width="98" height="32" fill="black" /></mask><g mask="url(#d1223)"><path d="M 760,20 L 880,20" fill="none" stroke="#7C7B7A" stroke-width="2" stroke-linecap="round" stroke-linejoin="round" stroke-dasharray="3 3"/><path d="M 880,20 L 873.0434782608696,13.502824858757059 M 880,20 L 873.0434782608695,26.497175141242934 Z" fill="rgb(255,255,255)" stroke="#7C7B7A" stroke-width="2" stroke-linecap="round" stroke-linejoin="round"/></g><g transform="translate(774, 7)" width="92" height="26"><text text-decoration="none" x="7.5" fill="rgb(84, 84, 84)" font-size="14pt" font-family="lt_regular"  y="20">&#x226A;include&#x226B;</text><text text-decoration="none" x="84.5" fill="#4b4b4b" font-size="10pt" font-family="noto_regular"  y="20"></text></g></g><g id="idJYsYBuQ1M"><mask id="42264" x="856" y="116" width="148" height="48" maskUnits="userSpaceOnUse"><rect x="856" y="116" width="148" height="48" fill="white" /><rect x="881" y="124" width="98" height="32" fill="black" /></mask><g mask="url(#42264)"><path d="M 990,150 L 870,130" fill="none" stroke="#7C7B7A" stroke-width="2" stroke-linecap="round" stroke-linejoin="round" stroke-dasharray="3 3"/><path d="M 870,130 L 875.7937417609186,137.55241921047602 M 870,130 L 877.9299997880504,124.73487104768546 Z" fill="rgb(255,255,255)" stroke="#7C7B7A" stroke-width="2" stroke-linecap="round" stroke-linejoin="round"/></g><g transform="translate(884, 127)" width="92" height="26"><text text-decoration="none" x="7.5" fill="rgb(84, 84, 84)" font-size="14pt" font-family="lt_regular"  y="20">&#x226A;include&#x226B;</text><text text-decoration="none" x="84.5" fill="#4b4b4b" font-size="10pt" font-family="noto_regular"  y="20"></text></g></g><g id="jCKBzoP2fnm"><mask id="1f681" x="992" y="43" width="48" height="93" maskUnits="userSpaceOnUse"><rect x="992" y="43" width="48" height="93" fill="white" /><rect x="968" y="73.5" width="96" height="32" fill="black" /></mask><g mask="url(#1f681)"><path d="M 1006,57 L 1026,122" fill="none" stroke="#7C7B7A" stroke-width="2" stroke-linecap="round" stroke-linejoin="round" stroke-dasharray="3 3"/><path d="M 1006,57 L 1001.8139417918865,65.54888274578995 M 1006,57 L 1014.2434600992003,61.75939545697477 Z" fill="rgb(255,255,255)" stroke="#7C7B7A" stroke-width="2" stroke-linecap="round" stroke-linejoin="round"/></g><g transform="translate(971, 76.5)" width="90" height="26"><text text-decoration="none" x="8" fill="rgb(84, 84, 84)" font-size="14pt" font-family="lt_regular"  y="20">&#x226A;extend&#x226B;</text><text text-decoration="none" x="82" fill="#4b4b4b" font-size="10pt" font-family="noto_regular"  y="20"></text></g></g><g id="rmmchPnWOPr"><mask id="0f770" x="571" y="126" width="38" height="298" maskUnits="userSpaceOnUse"><rect x="571" y="126" width="38" height="298" fill="white" /><rect x="541" y="259" width="98" height="32" fill="black" /></mask><g mask="url(#0f770)"><path d="M 595,140 L 585,410" fill="none" stroke="#7C7B7A" stroke-width="2" stroke-linecap="round" stroke-linejoin="round" stroke-dasharray="3 3"/><path d="M 585,410 L 591.7501959171631,403.28871587526686 M 585,410 L 578.7647489247136,402.80777339406507 Z" fill="rgb(255,255,255)" stroke="#7C7B7A" stroke-width="2" stroke-linecap="round" stroke-linejoin="round"/></g><g transform="translate(544, 262)" width="92" height="26"><text text-decoration="none" x="7.5" fill="rgb(84, 84, 84)" font-size="14pt" font-family="lt_regular"  y="20">&#x226A;include&#x226B;</text><text text-decoration="none" x="84.5" fill="#4b4b4b" font-size="10pt" font-family="noto_regular"  y="20"></text></g></g><g id="QLDu4u6Rc09"><mask id="7c2cf" x="816" y="144" width="32" height="70" maskUnits="userSpaceOnUse"><rect x="816" y="144" width="32" height="70" fill="white" /><rect x="783" y="163" width="98" height="32" fill="black" /></mask><g mask="url(#7c2cf)"><path d="M 834,158 L 830,200" fill="none" stroke="#7C7B7A" stroke-width="2" stroke-linecap="round" stroke-linejoin="round" stroke-dasharray="3 3"/><path d="M 830,200 L 837.1218289672652,193.6844610931448 M 830,200 L 824.1849201749353,192.46399799952886 Z" fill="rgb(255,255,255)" stroke="#7C7B7A" stroke-width="2" stroke-linecap="round" stroke-linejoin="round"/></g><g transform="translate(786, 166)" width="92" height="26"><text text-decoration="none" x="7.5" fill="rgb(84, 84, 84)" font-size="14pt" font-family="lt_regular"  y="20">&#x226A;include&#x226B;</text><text text-decoration="none" x="84.5" fill="#4b4b4b" font-size="10pt" font-family="noto_regular"  y="20"></text></g></g><g id="5G5Qyg25878"><mask id="c7720" x="816" y="266" width="32" height="70" maskUnits="userSpaceOnUse"><rect x="816" y="266" width="32" height="70" fill="white" />undefined</mask><g mask="url(#c7720)"><path d="M 834,322 L 830,280" fill="none" stroke="#7C7B7A" stroke-width="2" stroke-linecap="round" stroke-linejoin="round" stroke-dasharray="3 3"/><path d="M 830,280 L 824.1849201749354,287.5360020004712 M 830,280 L 837.1218289672653,286.3155389068551 Z" fill="rgb(255,255,255)" stroke="#7C7B7A" stroke-width="2" stroke-linecap="round" stroke-linejoin="round"/></g>undefined</g><g id="bm3yIai9acv"><mask id="0e722" x="1026" y="166" width="38" height="268" maskUnits="userSpaceOnUse"><rect x="1026" y="166" width="38" height="268" fill="white" /><rect x="996" y="284" width="98" height="32" fill="black" /></mask><g mask="url(#0e722)"><path d="M 1050,180 L 1045,300 L 1040,420" fill="none" stroke="#7C7B7A" stroke-width="2" stroke-linecap="round" stroke-linejoin="round" stroke-dasharray="3 3"/><path d="M 1040,420 L 1046.497175141243,413.04347826086956 M 1040,420 L 1033.502824858757,413.04347826086956 Z" fill="rgb(255,255,255)" stroke="#7C7B7A" stroke-width="2" stroke-linecap="round" stroke-linejoin="round"/></g><g transform="translate(999, 287)" width="92" height="26"><text text-decoration="none" x="7.5" fill="rgb(84, 84, 84)" font-size="14pt" font-family="lt_regular"  y="20">&#x226A;include&#x226B;</text><text text-decoration="none" x="84.5" fill="#4b4b4b" font-size="10pt" font-family="noto_regular"  y="20"></text></g></g><g id="qUfZAMpYlhB"><mask id="cbd4a" x="676" y="436" width="318" height="28" maskUnits="userSpaceOnUse"><rect x="676" y="436" width="318" height="28" fill="white" /><rect x="787" y="434" width="96" height="32" fill="black" />undefined</mask><g mask="url(#cbd4a)"><path d="M 690,450 L 980,450" fill="none" stroke="#7C7B7A" stroke-width="2" stroke-linecap="round" stroke-linejoin="round" stroke-dasharray="3 3"/><path d="M 690,450 L 696.9565217391305,456.4971751412429 M 690,450 L 696.9565217391304,443.50282485875704 Z" fill="rgb(255,255,255)" stroke="#7C7B7A" stroke-width="2" stroke-linecap="round" stroke-linejoin="round"/></g><g transform="translate(790, 437)" width="90" height="26"><text text-decoration="none" x="8" fill="rgb(84, 84, 84)" font-size="14pt" font-family="lt_regular"  y="20">&#x226A;extend&#x226B;</text><text text-decoration="none" x="82" fill="#4b4b4b" font-size="10pt" font-family="noto_regular"  y="20"></text></g>undefined</g><g id="jTkzyFMKCcM"><g><path d="M 1270,317 L 1100,450" fill="none" stroke="#7E7E7E" stroke-width="2" stroke-linecap="round" stroke-linejoin="round"/></g></g><g id="7Y1sMSJmjs9"><g><path d="M 1270,239 L 960,240" fill="none" stroke="#7E7E7E" stroke-width="2" stroke-linecap="round" stroke-linejoin="round"/></g></g><g id="GhbMhjDvziI"><mask id="e2c17" x="686" y="516" width="248" height="128" maskUnits="userSpaceOnUse"><rect x="686" y="516" width="248" height="128" fill="white" /><rect x="761" y="564" width="98" height="32" fill="black" /></mask><g mask="url(#e2c17)"><path d="M 920,630 L 700,530" fill="none" stroke="#7C7B7A" stroke-width="2" stroke-linecap="round" stroke-linejoin="round" stroke-dasharray="3 3"/><path d="M 700,530 L 703.6444339879574,538.7934396245383 M 700,530 L 709.021534394131,526.9638187309564 Z" fill="rgb(255,255,255)" stroke="#7C7B7A" stroke-width="2" stroke-linecap="round" stroke-linejoin="round"/></g><g transform="translate(764, 567)" width="92" height="26"><text text-decoration="none" x="7.5" fill="rgb(84, 84, 84)" font-size="14pt" font-family="lt_regular"  y="20">&#x226A;include&#x226B;</text><text text-decoration="none" x="84.5" fill="#4b4b4b" font-size="10pt" font-family="noto_regular"  y="20"></text></g></g><g id="vcYiOb3pKBe"><mask id="5c09e" x="770" y="646" width="104" height="62" maskUnits="userSpaceOnUse"><rect x="770" y="646" width="104" height="62" fill="white" /><rect x="773" y="661" width="98" height="32" fill="black" /></mask><g mask="url(#5c09e)"><path d="M 860,660 L 784,694" fill="none" stroke="#7C7B7A" stroke-width="2" stroke-linecap="round" stroke-linejoin="round" stroke-dasharray="3 3"/><path d="M 784,694 L 793.0100121877693,697.0702051884567 M 784,694 L 787.6775927902117,685.2203763866346 Z" fill="rgb(255,255,255)" stroke="#7C7B7A" stroke-width="2" stroke-linecap="round" stroke-linejoin="round"/></g><g transform="translate(776, 664)" width="92" height="26"><text text-decoration="none" x="7.5" fill="rgb(84, 84, 84)" font-size="14pt" font-family="lt_regular"  y="20">&#x226A;include&#x226B;</text><text text-decoration="none" x="84.5" fill="#4b4b4b" font-size="10pt" font-family="noto_regular"  y="20"></text></g></g><g id="5BLzbq4W6Y4"><mask id="9a760" x="726" y="659" width="154" height="185" maskUnits="userSpaceOnUse"><rect x="726" y="659" width="154" height="185" fill="white" /><rect x="754" y="735.5" width="98" height="32" fill="black" /></mask><g mask="url(#9a760)"><path d="M 866,673 L 740,830" fill="none" stroke="#7C7B7A" stroke-width="2" stroke-linecap="round" stroke-linejoin="round" stroke-dasharray="3 3"/><path d="M 740,830 L 749.420875535373,828.6385362032033 M 740,830 L 739.2842673927943,820.5082032070866 Z" fill="rgb(255,255,255)" stroke="#7C7B7A" stroke-width="2" stroke-linecap="round" stroke-linejoin="round"/></g><g transform="translate(757, 738.5)" width="92" height="26"><text text-decoration="none" x="7.5" fill="rgb(84, 84, 84)" font-size="14pt" font-family="lt_regular"  y="20">&#x226A;include&#x226B;</text><text text-decoration="none" x="84.5" fill="#4b4b4b" font-size="10pt" font-family="noto_regular"  y="20"></text></g></g><g id="3ccQ3yqs0Zf"><mask id="c0d77" x="616" y="546" width="38" height="68" maskUnits="userSpaceOnUse"><rect x="616" y="546" width="38" height="68" fill="white" /><rect x="586" y="564" width="98" height="32" fill="black" /></mask><g mask="url(#c0d77)"><path d="M 640,560 L 630,600" fill="none" stroke="#7C7B7A" stroke-width="2" stroke-linecap="round" stroke-linejoin="round" stroke-dasharray="3 3"/><path d="M 630,600 L 637.9903900834863,594.8269790415366 M 630,600 L 625.3840186126713,591.6753861738327 Z" fill="rgb(255,255,255)" stroke="#7C7B7A" stroke-width="2" stroke-linecap="round" stroke-linejoin="round"/></g><g transform="translate(589, 567)" width="92" height="26"><text text-decoration="none" x="7.5" fill="rgb(84, 84, 84)" font-size="14pt" font-family="lt_regular"  y="20">&#x226A;include&#x226B;</text><text text-decoration="none" x="84.5" fill="#4b4b4b" font-size="10pt" font-family="noto_regular"  y="20"></text></g></g><g id="mNp1g4OPGqZ"><mask id="8e35b" x="592" y="644" width="78" height="172" maskUnits="userSpaceOnUse"><rect x="592" y="644" width="78" height="172" fill="white" /><rect x="582" y="714" width="98" height="32" fill="black" /></mask><g mask="url(#8e35b)"><path d="M 656,802 L 606,658" fill="none" stroke="#7C7B7A" stroke-width="2" stroke-linecap="round" stroke-linejoin="round" stroke-dasharray="3 3"/><path d="M 606,658 L 602.1292082186859,666.6961744755203 M 606,658 L 614.4119119012339,662.4549093917675 Z" fill="rgb(255,255,255)" stroke="#7C7B7A" stroke-width="2" stroke-linecap="round" stroke-linejoin="round"/></g><g transform="translate(585, 717)" width="92" height="26"><text text-decoration="none" x="7.5" fill="rgb(84, 84, 84)" font-size="14pt" font-family="lt_regular"  y="20">&#x226A;include&#x226B;</text><text text-decoration="none" x="84.5" fill="#4b4b4b" font-size="10pt" font-family="noto_regular"  y="20"></text></g></g><g id="Ivf0NyEpyN3"><mask id="f3215" x="676" y="616" width="92" height="80" maskUnits="userSpaceOnUse"><rect x="676" y="616" width="92" height="80" fill="white" /><rect x="673" y="640" width="98" height="32" fill="black" /></mask><g mask="url(#f3215)"><path d="M 754,682 L 690,630" fill="none" stroke="#7C7B7A" stroke-width="2" stroke-linecap="round" stroke-linejoin="round" stroke-dasharray="3 3"/><path d="M 690,630 L 691.3019831858373,639.429279893331 M 690,630 L 699.4961246418671,629.3441827166789 Z" fill="rgb(255,255,255)" stroke="#7C7B7A" stroke-width="2" stroke-linecap="round" stroke-linejoin="round"/></g><g transform="translate(676, 643)" width="92" height="26"><text text-decoration="none" x="7.5" fill="rgb(84, 84, 84)" font-size="14pt" font-family="lt_regular"  y="20">&#x226A;include&#x226B;</text><text text-decoration="none" x="84.5" fill="#4b4b4b" font-size="10pt" font-family="noto_regular"  y="20"></text></g></g><g id="Oj1K1ag9Lkk"><g><path d="M 882,203 L 876,212" fill="none" stroke="#7C7B7A" stroke-width="2" stroke-linecap="round" stroke-linejoin="round"/></g></g></svg>